<svg width="145" height="32" viewBox="0 0 145 32" xmlns="http://www.w3.org/2000/svg">
    <path fill="#111" d="M37.19 24V10.7h8.09V12h-6.5v4.67h5.53V18h-5.53v6zm10.54 0V10.7H52a5.54 5.54 0 012.54.51A3.35 3.35 0 0156 12.62a4.18 4.18 0 01.47 2 4 4 0 01-.67 2.27 3.65 3.65 0 01-2.1 1.42L56.64 24h-1.88l-2.7-5.49h-2.73V24zm1.6-6.75h2.58a2.92 2.92 0 002.24-.74 2.63 2.63 0 00.71-1.9 2.52 2.52 0 00-.7-1.87 3.13 3.13 0 00-2.27-.69h-2.56zM58.56 24l4.9-13.3h1.69L70 24h-1.65l-1.22-3.42h-5.66L60.23 24zm3.38-4.71h4.72l-2.36-6.58zM72.41 24V10.7h1.86l4.79 9.3 4.75-9.27h1.88V24H84.1V13.55l-4.45 8.55h-1.19L74 13.57V24zm16.49 0V10.7h8.23V12H90.5v4.64h6.06v1.29H90.5v4.75h6.63V24zm11 0V10.7h4.88a5.69 5.69 0 012.64.54A3.63 3.63 0 01109 12.7a4.23 4.23 0 01-.12 4.27 3.6 3.6 0 01-2 1.46l2.74 5.57h-2.79l-2.47-5.24h-2V24zm2.43-7h2.3a2.41 2.41 0 001.79-.59 2.14 2.14 0 00.57-1.56 2.09 2.09 0 00-.56-1.52 2.48 2.48 0 00-1.82-.57h-2.28zm9 7l4.87-13.3h2.73l4.83 13.3h-2.59l-1.06-3.08h-5.19L113.84 24zm4.3-5h3.85l-1.94-5.53zm12 5V12.66h-3.93v-2h10.2v2H130V24zm8.54 0V10.7h8.68v2h-6.25v3.6h5.68v1.91h-5.68V22h6.25v2zM9.25 21v-9.9L17.9 16zm1.1-8v6.1l5.34-3.1z"/>
    <path class="uk-text-primary" fill="#f8c60f" d="M11.87 31.8A15.85 15.85 0 01.43 27l1.14-1.12a14.2 14.2 0 100-19.7L.43 5a15.86 15.86 0 1111.44 26.8z"/>
</svg>